<svg width="33" height="33" viewBox="0 0 33 33" fill="none" xmlns="http://www.w3.org/2000/svg">
<path fill-rule="evenodd" clip-rule="evenodd" d="M32.287 16.8461C32.287 15.6779 32.1821 14.5547 31.9875 13.4766H16.4727V19.8487H25.3383C24.9564 21.9078 23.7958 23.6526 22.0511 24.8206V28.954H27.375C30.49 26.086 32.287 21.863 32.287 16.8461Z" fill="#4285F4"/>
<path fill-rule="evenodd" clip-rule="evenodd" d="M16.4751 32.9449C20.9229 32.9449 24.6517 31.4698 27.3774 28.9539L22.0535 24.8206C20.5784 25.809 18.6914 26.393 16.4751 26.393C12.1845 26.393 8.55288 23.4953 7.25748 19.6016H1.75391V23.8697C4.46452 29.2535 10.0355 32.9449 16.4751 32.9449Z" fill="#34A853"/>
<path fill-rule="evenodd" clip-rule="evenodd" d="M7.25573 19.6061C6.92626 18.6177 6.73907 17.5618 6.73907 16.4762C6.73907 15.3904 6.92626 14.3347 7.25573 13.3462V9.07812H1.75215C0.636467 11.302 0 13.818 0 16.4762C0 19.1343 0.636467 21.6502 1.75215 23.8741L7.25573 19.6061Z" fill="#FBBC05"/>
<path fill-rule="evenodd" clip-rule="evenodd" d="M16.4751 6.55186C18.8936 6.55186 21.0651 7.38302 22.7723 9.01538L27.4971 4.29054C24.6442 1.63236 20.9153 0 16.4751 0C10.0355 0 4.46452 3.69152 1.75391 9.07527L7.25748 13.3433C8.55288 9.44967 12.1845 6.55186 16.4751 6.55186Z" fill="#EA4335"/>
</svg>
