<svg width="35" height="33" viewBox="0 0 35 33" fill="none" xmlns="http://www.w3.org/2000/svg">
<path d="M17.3064 0.59375C7.90559 0.59375 0.324219 6.65878 0.324219 14.0218C0.324219 18.8012 3.47807 22.9861 8.20884 25.3756L6.60765 31.356C6.57747 31.4454 6.57284 31.5418 6.59426 31.6337C6.61569 31.7258 6.66231 31.8105 6.72897 31.8775C6.82614 31.963 6.95118 32.0105 7.08075 32.0108C7.18817 32.0023 7.29008 31.9597 7.37185 31.8896L14.2618 27.2439C15.2789 27.3841 16.3041 27.4569 17.3308 27.462C26.7196 27.462 34.313 21.397 34.313 14.0218C34.313 6.64666 26.6952 0.59375 17.3064 0.59375Z" fill="#392020"/>
<path d="M6.26127 11.8951H4.40533C4.17532 11.9018 3.94813 11.8429 3.7503 11.7253C3.66249 11.6702 3.58698 11.5976 3.52854 11.512C3.47007 11.4265 3.42995 11.3297 3.41067 11.2279C3.40478 11.1633 3.40478 11.0985 3.41067 11.0339C3.4049 10.9131 3.42835 10.7926 3.47902 10.6828C3.52972 10.573 3.60611 10.4771 3.70177 10.4031C3.91326 10.25 4.16852 10.169 4.42959 10.1726H10.0216C10.2535 10.1644 10.4822 10.228 10.6766 10.3545C10.7665 10.4071 10.8436 10.4791 10.9024 10.5651C10.9611 10.6511 11 10.7491 11.0163 10.8519C11.0222 10.9124 11.0222 10.9734 11.0163 11.0339C11.022 11.1564 10.9986 11.2786 10.948 11.3903C10.8974 11.5021 10.821 11.6002 10.7252 11.6767C10.5189 11.8297 10.2661 11.9069 10.0095 11.8951H8.21423V18.2757C8.22152 18.4114 8.20048 18.5474 8.15244 18.6749C8.10443 18.8021 8.03046 18.9181 7.93522 19.0154C7.8439 19.1085 7.73416 19.1813 7.61296 19.2294C7.49179 19.2774 7.36192 19.2998 7.23166 19.2946C7.00386 19.301 6.78087 19.2282 6.6009 19.0883C6.42954 18.9517 6.31327 18.758 6.27338 18.5426C6.26139 18.454 6.26139 18.3643 6.27338 18.2757L6.26127 11.8951Z" fill="#FEE500"/>
<path d="M11.5566 10.6397C11.61 10.4401 11.7352 10.2673 11.9084 10.1545C12.0928 10.0499 12.3031 9.99948 12.5149 10.0089H12.9758C13.2006 10.0009 13.4232 10.0555 13.6187 10.1666C13.8259 10.306 13.9732 10.5181 14.0312 10.761L16.4572 17.6145C16.5201 17.7934 16.5727 17.9756 16.6149 18.1605C16.619 18.2373 16.619 18.314 16.6149 18.3908C16.619 18.5092 16.5972 18.6268 16.5511 18.7359C16.505 18.8446 16.4357 18.9422 16.348 19.0217C16.263 19.1087 16.161 19.1776 16.0483 19.2236C15.9356 19.2692 15.8146 19.2915 15.693 19.2885C15.5059 19.3073 15.318 19.2622 15.1596 19.161C15.0011 19.0598 14.8814 18.9081 14.8196 18.7307L14.3101 17.2387H11.1199L10.6104 18.7307C10.5502 18.9117 10.429 19.0664 10.2675 19.168C10.1061 19.2698 9.91432 19.3124 9.72495 19.2885C9.51981 19.294 9.31891 19.2299 9.15483 19.1066C8.99496 18.9794 8.88709 18.7984 8.85155 18.5972C8.84512 18.5286 8.84512 18.4594 8.85155 18.3908C8.83073 18.2705 8.83073 18.1476 8.85155 18.027C8.85155 17.8937 8.93649 17.7481 8.98499 17.6145L11.5566 10.6397ZM12.7696 12.2289L11.6172 15.8679H13.9098L12.7696 12.2289Z" fill="#FEE500"/>
<path d="M16.8878 11.0279C16.8754 10.7556 16.9714 10.4896 17.1546 10.288C17.2478 10.194 17.3596 10.1206 17.4829 10.0725C17.6062 10.0244 17.7382 10.0027 17.8703 10.0088C18.0975 10.0062 18.3193 10.0787 18.5012 10.2151C18.6695 10.3574 18.7816 10.5553 18.8164 10.773C18.8284 10.8575 18.8284 10.9434 18.8164 11.0279V17.4084H22.1522C22.3834 17.4054 22.6109 17.4682 22.8073 17.5903C22.8955 17.6447 22.9714 17.7172 23.03 17.8027C23.0886 17.8885 23.1285 17.9855 23.1469 18.0877C23.1469 18.0877 23.1469 18.2088 23.1469 18.2696C23.1527 18.3904 23.1291 18.5107 23.0787 18.6204C23.0279 18.7304 22.9514 18.8265 22.856 18.9005C22.6445 19.0534 22.3891 19.1344 22.1281 19.1307H18.028C17.7669 19.1477 17.5074 19.0797 17.288 18.9367C17.0919 18.7902 16.9613 18.5723 16.9242 18.3303C16.9153 18.1971 16.9153 18.0632 16.9242 17.9299L16.8878 11.0279Z" fill="#FEE500"/>
<path d="M23.3629 11.027C23.3557 10.7556 23.4508 10.4914 23.6297 10.2871C23.8116 10.1219 24.0449 10.0243 24.2902 10.011C24.5353 9.99781 24.7776 10.0696 24.9762 10.2142C25.1484 10.3553 25.2647 10.5531 25.3037 10.7722C25.3097 10.857 25.3097 10.9422 25.3037 11.027V13.9988L28.3728 10.4568C28.4909 10.3359 28.6166 10.2226 28.7486 10.1172C28.8734 10.043 29.0164 10.0051 29.1611 10.008C29.3732 10.0068 29.5805 10.0703 29.7555 10.1899C29.8379 10.2455 29.9083 10.3171 29.9627 10.4005C30.0168 10.4839 30.0537 10.5773 30.0709 10.6752C30.0757 10.6992 30.0757 10.724 30.0709 10.748C30.0652 10.776 30.0652 10.8049 30.0709 10.8329C30.0706 10.9605 30.0371 11.0859 29.9739 11.1968C29.9096 11.3143 29.8322 11.424 29.7434 11.5242L27.7298 13.732L30.1558 17.4922V17.6137C30.2818 17.7874 30.38 17.9799 30.4471 18.1838V18.2443C30.461 18.3851 30.4408 18.5268 30.3879 18.6579C30.335 18.7888 30.2513 18.9051 30.1437 18.9963C29.9413 19.1495 29.6938 19.2305 29.4403 19.2269C29.2717 19.2338 29.1043 19.1961 28.955 19.1178C28.7934 19.0093 28.6604 18.8637 28.5667 18.6933L26.3105 15.0542L25.2309 16.1823V18.208C25.2381 18.4793 25.1429 18.7434 24.9641 18.948C24.8683 19.0417 24.7544 19.1148 24.629 19.1628C24.5039 19.2106 24.3703 19.2326 24.2365 19.2269C24.0126 19.2317 23.7941 19.1589 23.6176 19.0208C23.4463 18.8842 23.33 18.6903 23.2901 18.4748C23.2783 18.3863 23.2783 18.2965 23.2901 18.208L23.3629 11.027Z" fill="#FEE500"/>
</svg>
